<svg width="8" height="13" viewBox="0 0 8 13" fill="none" xmlns="http://www.w3.org/2000/svg">
<path d="M0.46967 0.53033C0.762563 0.237437 1.23744 0.237437 1.53033 0.53033L6.83363 5.83363C7.12652 6.12652 7.12652 6.6014 6.83363 6.89429C6.54074 7.18718 6.06586 7.18718 5.77297 6.89429L0.46967 1.59099C0.176777 1.2981 0.176777 0.823223 0.46967 0.53033Z" fill="#AAAAAA"/>
<path d="M0.46967 12.1976C0.176777 11.9047 0.176777 11.4298 0.46967 11.1369L5.77297 5.83363C6.06586 5.54074 6.54074 5.54074 6.83363 5.83363C7.12652 6.12652 7.12652 6.6014 6.83363 6.89429L1.53033 12.1976C1.23744 12.4905 0.762563 12.4905 0.46967 12.1976Z" fill="#AAAAAA"/>
</svg>
